<svg width="20" height="20" viewBox="0 0 20 20" fill="none" xmlns="http://www.w3.org/2000/svg">
<path d="M15.2501 4.7599C14.9251 4.4349 14.4001 4.4349 14.0751 4.7599L10.0001 8.82656L5.9251 4.75156C5.6001 4.42656 5.0751 4.42656 4.7501 4.75156C4.4251 5.07656 4.4251 5.60156 4.7501 5.92656L8.8251 10.0016L4.7501 14.0766C4.4251 14.4016 4.4251 14.9266 4.7501 15.2516C5.0751 15.5766 5.6001 15.5766 5.9251 15.2516L10.0001 11.1766L14.0751 15.2516C14.4001 15.5766 14.9251 15.5766 15.2501 15.2516C15.5751 14.9266 15.5751 14.4016 15.2501 14.0766L11.1751 10.0016L15.2501 5.92656C15.5668 5.6099 15.5668 5.07656 15.2501 4.7599Z" fill="#616A73"/>
</svg>
