<svg width="24" height="24" viewBox="0 0 24 24" fill="none" xmlns="http://www.w3.org/2000/svg">
<path d="M8.25 16.375C8.25 17.0625 8.8125 17.625 9.5 17.625H14.5C15.1875 17.625 15.75 17.0625 15.75 16.375V10.125C15.75 9.4375 15.1875 8.875 14.5 8.875H9.5C8.8125 8.875 8.25 9.4375 8.25 10.125V16.375ZM10.125 10.125H13.875C14.2188 10.125 14.5 10.4062 14.5 10.75V15.75C14.5 16.0938 14.2188 16.375 13.875 16.375H10.125C9.78125 16.375 9.5 16.0938 9.5 15.75V10.75C9.5 10.4062 9.78125 10.125 10.125 10.125ZM14.1875 7L13.7437 6.55625C13.6312 6.44375 13.4688 6.375 13.3063 6.375H10.6937C10.5312 6.375 10.3688 6.44375 10.2563 6.55625L9.8125 7H8.25C7.90625 7 7.625 7.28125 7.625 7.625C7.625 7.96875 7.90625 8.25 8.25 8.25H15.75C16.0938 8.25 16.375 7.96875 16.375 7.625C16.375 7.28125 16.0938 7 15.75 7H14.1875Z" fill="#E34F4F"/>
</svg>
