<svg width="20" height="20" viewBox="0 0 20 20" fill="none" xmlns="http://www.w3.org/2000/svg">
<path d="M9.16683 15.0026C9.16683 15.9193 8.41683 16.6693 7.50016 16.6693C6.5835 16.6693 5.8335 15.9193 5.8335 15.0026C5.8335 14.0859 6.5835 13.3359 7.50016 13.3359C8.41683 13.3359 9.16683 14.0859 9.16683 15.0026ZM7.50016 8.33594C6.5835 8.33594 5.8335 9.08594 5.8335 10.0026C5.8335 10.9193 6.5835 11.6693 7.50016 11.6693C8.41683 11.6693 9.16683 10.9193 9.16683 10.0026C9.16683 9.08594 8.41683 8.33594 7.50016 8.33594ZM7.50016 3.33594C6.5835 3.33594 5.8335 4.08594 5.8335 5.0026C5.8335 5.91927 6.5835 6.66927 7.50016 6.66927C8.41683 6.66927 9.16683 5.91927 9.16683 5.0026C9.16683 4.08594 8.41683 3.33594 7.50016 3.33594ZM12.5002 6.66927C13.4168 6.66927 14.1668 5.91927 14.1668 5.0026C14.1668 4.08594 13.4168 3.33594 12.5002 3.33594C11.5835 3.33594 10.8335 4.08594 10.8335 5.0026C10.8335 5.91927 11.5835 6.66927 12.5002 6.66927ZM12.5002 8.33594C11.5835 8.33594 10.8335 9.08594 10.8335 10.0026C10.8335 10.9193 11.5835 11.6693 12.5002 11.6693C13.4168 11.6693 14.1668 10.9193 14.1668 10.0026C14.1668 9.08594 13.4168 8.33594 12.5002 8.33594ZM12.5002 13.3359C11.5835 13.3359 10.8335 14.0859 10.8335 15.0026C10.8335 15.9193 11.5835 16.6693 12.5002 16.6693C13.4168 16.6693 14.1668 15.9193 14.1668 15.0026C14.1668 14.0859 13.4168 13.3359 12.5002 13.3359Z" fill="#C2C7CC"/>
</svg>
