<svg width="20" height="20" viewBox="0 0 20 20" fill="none" xmlns="http://www.w3.org/2000/svg">
<path d="M4.16657 10.9844V13.326C4.16657 13.9344 4.4999 14.501 5.03324 14.7927L9.1999 17.0677C9.6999 17.3427 10.2999 17.3427 10.7999 17.0677L14.9666 14.7927C15.4999 14.501 15.8332 13.9344 15.8332 13.326V10.9844L10.7999 13.7344C10.2999 14.0094 9.6999 14.0094 9.1999 13.7344L4.16657 10.9844ZM9.1999 2.93438L2.1749 6.76771C1.5999 7.08437 1.5999 7.91771 2.1749 8.23438L9.1999 12.0677C9.6999 12.3427 10.2999 12.3427 10.7999 12.0677L17.4999 8.40938V13.3344C17.4999 13.7927 17.8749 14.1677 18.3332 14.1677C18.7916 14.1677 19.1666 13.7927 19.1666 13.3344V7.99271C19.1666 7.68438 18.9999 7.40938 18.7332 7.25938L10.7999 2.93438C10.2999 2.66771 9.6999 2.66771 9.1999 2.93438V2.93438Z" fill="#0254AC"/>
</svg>
