<svg width="16" height="16" viewBox="0 0 16 16" fill="none" xmlns="http://www.w3.org/2000/svg">
<path d="M8.00016 1.33594C4.32016 1.33594 1.3335 4.3226 1.3335 8.0026C1.3335 11.6826 4.32016 14.6693 8.00016 14.6693C11.6802 14.6693 14.6668 11.6826 14.6668 8.0026C14.6668 4.3226 11.6802 1.33594 8.00016 1.33594ZM8.00016 8.66927C7.6335 8.66927 7.3335 8.36927 7.3335 8.0026V5.33594C7.3335 4.96927 7.6335 4.66927 8.00016 4.66927C8.36683 4.66927 8.66683 4.96927 8.66683 5.33594V8.0026C8.66683 8.36927 8.36683 8.66927 8.00016 8.66927ZM8.66683 11.3359H7.3335V10.0026H8.66683V11.3359Z" fill="#C83E3E"/>
</svg>
