<svg width="16" height="16" viewBox="0 0 16 16" fill="none" xmlns="http://www.w3.org/2000/svg">
<path d="M2.98024 14.0024H13.0202C14.0469 14.0024 14.6869 12.8891 14.1736 12.0024L9.15358 3.32906C8.64024 2.4424 7.36024 2.4424 6.84691 3.32906L1.82691 12.0024C1.31358 12.8891 1.95358 14.0024 2.98024 14.0024ZM8.00024 9.33573C7.63358 9.33573 7.33358 9.03573 7.33358 8.66906V7.33573C7.33358 6.96906 7.63358 6.66906 8.00024 6.66906C8.36691 6.66906 8.66691 6.96906 8.66691 7.33573V8.66906C8.66691 9.03573 8.36691 9.33573 8.00024 9.33573ZM8.66691 12.0024H7.33358V10.6691H8.66691V12.0024Z" fill="#D18101"/>
</svg>
