<svg width="16" height="16" viewBox="0 0 16 16" fill="none" xmlns="http://www.w3.org/2000/svg">
<path d="M12.9865 8.23603C11.9398 5.51603 8.21317 5.36936 9.11317 1.41603C9.17984 1.1227 8.8665 0.896031 8.61317 1.04936C6.19317 2.47603 4.45317 5.33603 5.91317 9.0827C6.03317 9.38936 5.67317 9.67603 5.41317 9.47603C4.2065 8.5627 4.07984 7.24936 4.1865 6.30936C4.2265 5.9627 3.77317 5.79603 3.57984 6.0827C3.1265 6.77603 2.6665 7.89603 2.6665 9.5827C2.91984 13.316 6.07317 14.4627 7.2065 14.6094C8.8265 14.816 10.5798 14.516 11.8398 13.3627C13.2265 12.076 13.7332 10.0227 12.9865 8.23603ZM6.79984 11.5894C7.75984 11.356 8.25317 10.6627 8.3865 10.0494C8.6065 9.09603 7.7465 8.1627 8.3265 6.65603C8.5465 7.9027 10.5065 8.6827 10.5065 10.0427C10.5598 11.7294 8.73317 13.176 6.79984 11.5894Z" fill="#C83E3E"/>
</svg>
