<svg width="40" height="40" viewBox="0 0 40 40" fill="none" xmlns="http://www.w3.org/2000/svg">
<rect width="40" height="40" fill="#0254AC"/>
<path d="M7.5 15H13.125V17.5H12.1875V22.5H13.125V25H7.5V22.5H8.4375V17.5H7.5V15Z" fill="white"/>
<path fill-rule="evenodd" clip-rule="evenodd" d="M13.5938 15H20.9375C22.3183 15 23.4375 16.1193 23.4375 17.5C23.4375 18.4515 22.9059 19.2789 22.1234 19.7014C23.1645 20.0878 23.9062 21.0901 23.9062 22.2656C23.9062 23.7758 22.682 25 21.1719 25H13.5938V22.5H14.5312V17.5H13.5938V15ZM17.8125 22.5V21.25H19.375C19.7202 21.25 20 21.5298 20 21.875C20 22.2202 19.7202 22.5 19.375 22.5H17.8125ZM17.8125 17.5V18.75H19.375C19.7202 18.75 20 18.4702 20 18.125C20 17.7798 19.7202 17.5 19.375 17.5H17.8125Z" fill="white"/>
<path d="M32.6562 15H26.875C25.1491 15 23.75 16.3991 23.75 18.125C23.75 19.8509 25.1491 21.25 26.875 21.25H29.0625C29.4077 21.25 29.6875 21.5298 29.6875 21.875C29.6875 22.2202 29.4077 22.5 29.0625 22.5C28.7173 22.5 27.5 22.5 27.5 22.5V21.7188H24.2188V25H30.1562C31.8822 25 33.2812 23.6009 33.2812 21.875C33.2812 20.1491 31.8822 18.75 30.1562 18.75H27.8125C27.4673 18.75 27.1875 18.4702 27.1875 18.125C27.1875 17.7798 27.4673 17.5 27.8125 17.5H29.375V18.2812H32.6562V15Z" fill="white"/>
</svg>
