<svg width="58" height="58" viewBox="13 5 32 32" fill="none" xmlns="http://www.w3.org/2000/svg">
<g filter="url(#filter0_d_1209_222134)">
<path d="M29.0002 33.8031C36.0694 33.8031 41.8002 28.0724 41.8002 21.0031C41.8002 13.9339 36.0694 8.20312 29.0002 8.20312C21.931 8.20312 16.2002 13.9339 16.2002 21.0031C16.2002 28.0724 21.931 33.8031 29.0002 33.8031Z" fill="url(#paint0_radial_1209_222134)"/>
<path opacity="0.5" d="M29.0002 33.8031C36.0694 33.8031 41.8002 28.0724 41.8002 21.0031C41.8002 13.9339 36.0694 8.20312 29.0002 8.20312C21.931 8.20312 16.2002 13.9339 16.2002 21.0031C16.2002 28.0724 21.931 33.8031 29.0002 33.8031Z" fill="url(#paint1_radial_1209_222134)"/>
<path d="M26.184 14.3711C26.184 13.8591 25.632 13.5391 24.672 13.5391C23.864 13.5391 22.08 13.9871 20.856 15.5631C20.632 15.8511 20.976 16.0111 21.2 15.8271C21.952 15.1871 23.976 14.3631 25.552 14.5391C26.184 14.6031 26.184 14.3711 26.184 14.3711Z" fill="url(#paint2_linear_1209_222134)"/>
<path d="M24.816 20.5874C25.4964 20.5874 26.048 19.7528 26.048 18.7234C26.048 17.6939 25.4964 16.8594 24.816 16.8594C24.1356 16.8594 23.584 17.6939 23.584 18.7234C23.584 19.7528 24.1356 20.5874 24.816 20.5874Z" fill="url(#paint3_radial_1209_222134)"/>
<path d="M24.816 17.4923C25.344 17.4923 25.808 17.9563 26.048 18.6363C26.032 17.6283 25.488 16.8203 24.816 16.8203C24.144 16.8203 23.6 17.6283 23.584 18.6363C23.824 17.9563 24.288 17.4923 24.816 17.4923Z" fill="url(#paint4_linear_1209_222134)"/>
<path d="M31.8159 14.3711C31.8159 13.8591 32.3679 13.5391 33.3279 13.5391C34.1359 13.5391 35.9199 13.9871 37.1439 15.5631C37.3679 15.8511 37.0239 16.0111 36.7999 15.8271C36.0479 15.1871 34.0239 14.3631 32.4479 14.5391C31.8079 14.6031 31.8159 14.3711 31.8159 14.3711Z" fill="url(#paint5_linear_1209_222134)"/>
<path d="M34.6559 24.7462C34.5519 24.7302 34.4399 24.7622 34.3679 24.8342C32.9919 26.1222 30.8719 26.8182 29.2719 26.8182H28.9999H28.7279C27.1279 26.8182 25.0079 26.1222 23.6319 24.8342C23.5519 24.7622 23.4479 24.7302 23.3439 24.7462C23.2319 24.7702 23.1759 24.8902 23.2319 24.9862C24.4079 27.0182 26.5759 28.2742 28.9359 28.2742H29.0079H29.0799C31.4399 28.2742 33.6079 27.0182 34.7839 24.9862C34.8239 24.8902 34.7679 24.7702 34.6559 24.7462Z" fill="#643800"/>
<path d="M33.1763 20.5874C33.8568 20.5874 34.4083 19.7528 34.4083 18.7234C34.4083 17.6939 33.8568 16.8594 33.1763 16.8594C32.4959 16.8594 31.9443 17.6939 31.9443 18.7234C31.9443 19.7528 32.4959 20.5874 33.1763 20.5874Z" fill="url(#paint6_radial_1209_222134)"/>
<path d="M33.1763 17.4923C32.6483 17.4923 32.1843 17.9563 31.9443 18.6363C31.9603 17.6283 32.5043 16.8203 33.1763 16.8203C33.8483 16.8203 34.3923 17.6283 34.4083 18.6363C34.1683 17.9563 33.7043 17.4923 33.1763 17.4923Z" fill="url(#paint7_linear_1209_222134)"/>
<path d="M34.6559 24.7462C34.5519 24.7302 34.4399 24.7622 34.3679 24.8342C32.9919 26.1222 30.8719 26.8182 29.2719 26.8182H28.9999H28.7279C27.1279 26.8182 25.0079 26.1222 23.6319 24.8342C23.5519 24.7622 23.4479 24.7302 23.3439 24.7462C23.2319 24.7702 23.1759 24.8902 23.2319 24.9862C23.2399 25.0102 23.2559 25.0262 23.2719 25.0422C23.3839 24.9782 23.5039 24.9142 23.6239 25.0502C24.9279 26.5142 26.8639 27.3942 28.9359 27.3942H29.0079H29.0799C31.1679 27.3942 33.1119 26.5062 34.4159 25.0182C34.5359 24.8822 34.6479 24.9462 34.7519 25.0182C34.7599 25.0022 34.7679 24.9942 34.7759 24.9782C34.8239 24.8902 34.7679 24.7702 34.6559 24.7462Z" fill="url(#paint8_linear_1209_222134)"/>
</g>
<defs>
<filter id="filter0_d_1209_222134" x="0.200195" y="0.203125" width="57.6001" height="57.6016" filterUnits="userSpaceOnUse" color-interpolation-filters="sRGB">
<feFlood flood-opacity="0" result="BackgroundImageFix"/>
<feColorMatrix in="SourceAlpha" type="matrix" values="0 0 0 0 0 0 0 0 0 0 0 0 0 0 0 0 0 0 127 0" result="hardAlpha"/>
<feMorphology radius="8" operator="erode" in="SourceAlpha" result="effect1_dropShadow_1209_222134"/>
<feOffset dy="8"/>
<feGaussianBlur stdDeviation="12"/>
<feColorMatrix type="matrix" values="0 0 0 0 0.00392157 0 0 0 0 0.231373 0 0 0 0 0.47451 0 0 0 0.15 0"/>
<feBlend mode="normal" in2="BackgroundImageFix" result="effect1_dropShadow_1209_222134"/>
<feBlend mode="normal" in="SourceGraphic" in2="effect1_dropShadow_1209_222134" result="shape"/>
</filter>
<radialGradient id="paint0_radial_1209_222134" cx="0" cy="0" r="1" gradientUnits="userSpaceOnUse" gradientTransform="translate(26.4786 15.8157) scale(15.4415)">
<stop stop-color="#88D759"/>
<stop offset="1" stop-color="#73BD46"/>
</radialGradient>
<radialGradient id="paint1_radial_1209_222134" cx="0" cy="0" r="1" gradientUnits="userSpaceOnUse" gradientTransform="translate(26.4786 15.8157) scale(12.1485)">
<stop stop-color="#B4FF88"/>
<stop offset="1" stop-color="#88D759" stop-opacity="0"/>
</radialGradient>
<linearGradient id="paint2_linear_1209_222134" x1="23.4817" y1="15.229" x2="23.4817" y2="13.8802" gradientUnits="userSpaceOnUse">
<stop offset="0.00132565" stop-color="#3C2200"/>
<stop offset="1" stop-color="#7A4400"/>
</linearGradient>
<radialGradient id="paint3_radial_1209_222134" cx="0" cy="0" r="1" gradientUnits="userSpaceOnUse" gradientTransform="translate(24.4481 18.7763) rotate(73.8539) scale(1.80855 1.1701)">
<stop offset="0.00132565" stop-color="#7A4400"/>
<stop offset="1" stop-color="#643800"/>
</radialGradient>
<linearGradient id="paint4_linear_1209_222134" x1="24.8178" y1="16.8531" x2="24.8178" y2="18.5902" gradientUnits="userSpaceOnUse">
<stop offset="0.00132565" stop-color="#3C2200"/>
<stop offset="1" stop-color="#512D00"/>
</linearGradient>
<linearGradient id="paint5_linear_1209_222134" x1="34.5119" y1="15.229" x2="34.5119" y2="13.8802" gradientUnits="userSpaceOnUse">
<stop offset="0.00132565" stop-color="#3C2200"/>
<stop offset="1" stop-color="#7A4400"/>
</linearGradient>
<radialGradient id="paint6_radial_1209_222134" cx="0" cy="0" r="1" gradientUnits="userSpaceOnUse" gradientTransform="translate(32.8069 18.7766) rotate(73.8539) scale(1.80855 1.1701)">
<stop offset="0.00132565" stop-color="#7A4400"/>
<stop offset="1" stop-color="#643800"/>
</radialGradient>
<linearGradient id="paint7_linear_1209_222134" x1="33.1762" y1="16.8531" x2="33.1762" y2="18.5902" gradientUnits="userSpaceOnUse">
<stop offset="0.00132565" stop-color="#3C2200"/>
<stop offset="1" stop-color="#512D00"/>
</linearGradient>
<linearGradient id="paint8_linear_1209_222134" x1="28.9968" y1="25.651" x2="28.9968" y2="27.5619" gradientUnits="userSpaceOnUse">
<stop offset="0.00132565" stop-color="#3C2200"/>
<stop offset="1" stop-color="#512D00"/>
</linearGradient>
</defs>
</svg>
