<svg width="58" height="58" viewBox="13 5 32 32" fill="none" xmlns="http://www.w3.org/2000/svg">
<g filter="url(#filter0_d_1209_221854)">
<path d="M29.0002 33.8031C36.0694 33.8031 41.8002 28.0724 41.8002 21.0031C41.8002 13.9339 36.0694 8.20312 29.0002 8.20312C21.931 8.20312 16.2002 13.9339 16.2002 21.0031C16.2002 28.0724 21.931 33.8031 29.0002 33.8031Z" fill="url(#paint0_radial_1209_221854)"/>
<path opacity="0.5" d="M29.0002 33.8031C36.0694 33.8031 41.8002 28.0724 41.8002 21.0031C41.8002 13.9339 36.0694 8.20312 29.0002 8.20312C21.931 8.20312 16.2002 13.9339 16.2002 21.0031C16.2002 28.0724 21.931 33.8031 29.0002 33.8031Z" fill="url(#paint1_radial_1209_221854)"/>
<path d="M26.1843 14.3726C26.1843 13.8606 25.6306 13.5391 24.6781 13.5391C23.8684 13.5391 22.0883 13.9856 20.8619 15.5633C20.6357 15.855 20.981 16.0157 21.2072 15.8252C21.9633 15.1822 23.9815 14.3606 25.5592 14.5333C26.1903 14.6047 26.1843 14.3726 26.1843 14.3726Z" fill="url(#paint2_linear_1209_221854)"/>
<path d="M24.8208 20.5941C25.5014 20.5941 26.0531 19.7598 26.0531 18.7306C26.0531 17.7015 25.5014 16.8672 24.8208 16.8672C24.1401 16.8672 23.5884 17.7015 23.5884 18.7306C23.5884 19.7598 24.1401 20.5941 24.8208 20.5941Z" fill="url(#paint3_radial_1209_221854)"/>
<path d="M24.8208 17.4931C25.3506 17.4931 25.809 17.9515 26.0531 18.6361C26.0353 17.63 25.4935 16.8203 24.8208 16.8203C24.148 16.8203 23.6062 17.63 23.5884 18.6361C23.8325 17.9574 24.2909 17.4931 24.8208 17.4931Z" fill="url(#paint4_linear_1209_221854)"/>
<path d="M31.8164 14.3726C31.8164 13.8606 32.3701 13.5391 33.3226 13.5391C34.1323 13.5391 35.9124 13.9856 37.1388 15.5633C37.3651 15.855 37.0198 16.0157 36.7935 15.8252C36.0374 15.1822 34.0192 14.3606 32.4415 14.5333C31.8105 14.6047 31.8164 14.3726 31.8164 14.3726Z" fill="url(#paint5_linear_1209_221854)"/>
<path d="M33.1796 20.5941C33.8603 20.5941 34.412 19.7598 34.412 18.7306C34.412 17.7015 33.8603 16.8672 33.1796 16.8672C32.499 16.8672 31.9473 17.7015 31.9473 18.7306C31.9473 19.7598 32.499 20.5941 33.1796 20.5941Z" fill="url(#paint6_radial_1209_221854)"/>
<path d="M33.1796 17.4931C32.6498 17.4931 32.1914 17.9515 31.9473 18.6361C31.9651 17.63 32.5069 16.8203 33.1796 16.8203C33.8524 16.8203 34.3941 17.63 34.412 18.6361C34.1679 17.9574 33.7095 17.4931 33.1796 17.4931Z" fill="url(#paint7_linear_1209_221854)"/>
<path d="M37.6449 23.1716C37.5496 23.1359 37.4425 23.1299 37.3472 23.1597C34.6443 23.9336 31.8402 24.3206 29.0064 24.3206C26.1725 24.3206 23.3625 23.9277 20.6655 23.1597C20.5643 23.1299 20.4631 23.1359 20.3679 23.1716C20.0761 23.2907 19.6118 23.7312 20.225 25.4161V25.422C21.1299 27.5772 23.5292 31.3636 29.0004 31.3636C34.4598 31.3636 36.859 27.5712 37.7878 25.422C38.395 23.7312 37.9366 23.2907 37.6449 23.1716Z" fill="url(#paint8_radial_1209_221854)"/>
<path d="M29.0004 30.7613C31.2687 30.7613 32.9714 30.0647 34.2454 29.1122C32.8463 28.4811 31.1198 28.0703 29.0004 28.0703C26.881 28.0703 25.1544 28.4871 23.7554 29.1241C25.0294 30.0647 26.7321 30.7613 29.0004 30.7613Z" fill="url(#paint9_radial_1209_221854)"/>
<path d="M37.472 23.1328C37.4542 23.1328 37.4363 23.1328 37.4125 23.1388C34.6858 23.9246 31.8579 24.3235 28.9943 24.3235C26.1307 24.3235 23.3027 23.9246 20.576 23.1388C20.5582 23.1328 20.5403 23.1328 20.5165 23.1328C20.332 23.1507 19.4508 23.3352 20.2069 25.419V25.4249C20.576 26.2941 21.1893 27.4312 22.1478 28.4731C21.2488 27.4074 22.3561 26.818 24.3267 27.0562C26.2974 27.2943 28.9943 27.3003 28.9943 27.3003C28.9943 27.3003 31.6853 27.2943 33.6618 27.0562C35.6324 26.818 36.7398 27.4074 35.8408 28.4731C36.7993 27.4312 37.4125 26.2941 37.7816 25.4249V25.419C38.5377 23.3293 37.6566 23.1447 37.472 23.1328Z" fill="url(#paint10_linear_1209_221854)"/>
<path d="M35.9538 26.0618C36.704 25.9011 37.2696 25.276 37.341 24.508L37.4124 23.7578C34.6857 24.5258 31.8578 24.9187 29.0002 24.9187C26.1425 24.9187 23.3146 24.5258 20.5879 23.7578L20.6593 24.508C20.7308 25.27 21.2964 25.8951 22.0465 26.0618C24.3207 26.556 26.6545 26.8 29.0002 26.8C31.3458 26.8 33.6796 26.55 35.9538 26.0618Z" fill="url(#paint11_radial_1209_221854)"/>
</g>
<defs>
<filter id="filter0_d_1209_221854" x="0.200195" y="0.203125" width="57.6001" height="57.6016" filterUnits="userSpaceOnUse" color-interpolation-filters="sRGB">
<feFlood flood-opacity="0" result="BackgroundImageFix"/>
<feColorMatrix in="SourceAlpha" type="matrix" values="0 0 0 0 0 0 0 0 0 0 0 0 0 0 0 0 0 0 127 0" result="hardAlpha"/>
<feMorphology radius="8" operator="erode" in="SourceAlpha" result="effect1_dropShadow_1209_221854"/>
<feOffset dy="8"/>
<feGaussianBlur stdDeviation="12"/>
<feColorMatrix type="matrix" values="0 0 0 0 0.00392157 0 0 0 0 0.231373 0 0 0 0 0.47451 0 0 0 0.15 0"/>
<feBlend mode="normal" in2="BackgroundImageFix" result="effect1_dropShadow_1209_221854"/>
<feBlend mode="normal" in="SourceGraphic" in2="effect1_dropShadow_1209_221854" result="shape"/>
</filter>
<radialGradient id="paint0_radial_1209_221854" cx="0" cy="0" r="1" gradientUnits="userSpaceOnUse" gradientTransform="translate(26.4818 15.8157) scale(15.4415)">
<stop stop-color="#28C834"/>
<stop offset="1" stop-color="#179821"/>
</radialGradient>
<radialGradient id="paint1_radial_1209_221854" cx="0" cy="0" r="1" gradientUnits="userSpaceOnUse" gradientTransform="translate(26.4818 15.8157) scale(12.1485)">
<stop stop-color="#61FF6D"/>
<stop offset="1" stop-color="#28C834" stop-opacity="0"/>
</radialGradient>
<linearGradient id="paint2_linear_1209_221854" x1="23.4852" y1="15.2307" x2="23.4852" y2="13.8819" gradientUnits="userSpaceOnUse">
<stop offset="0.00132565" stop-color="#3C2200"/>
<stop offset="1" stop-color="#7A4400"/>
</linearGradient>
<radialGradient id="paint3_radial_1209_221854" cx="0" cy="0" r="1" gradientUnits="userSpaceOnUse" gradientTransform="translate(24.4472 18.774) rotate(73.8539) scale(1.80855 1.1701)">
<stop offset="0.00132565" stop-color="#7A4400"/>
<stop offset="1" stop-color="#643800"/>
</radialGradient>
<linearGradient id="paint4_linear_1209_221854" x1="24.8211" y1="16.8544" x2="24.8211" y2="18.5915" gradientUnits="userSpaceOnUse">
<stop offset="0.00132565" stop-color="#3C2200"/>
<stop offset="1" stop-color="#512D00"/>
</linearGradient>
<linearGradient id="paint5_linear_1209_221854" x1="34.5155" y1="15.2307" x2="34.5155" y2="13.8819" gradientUnits="userSpaceOnUse">
<stop offset="0.00132565" stop-color="#3C2200"/>
<stop offset="1" stop-color="#7A4400"/>
</linearGradient>
<radialGradient id="paint6_radial_1209_221854" cx="0" cy="0" r="1" gradientUnits="userSpaceOnUse" gradientTransform="translate(32.8058 18.7743) rotate(73.8539) scale(1.80854 1.1701)">
<stop offset="0.00132565" stop-color="#7A4400"/>
<stop offset="1" stop-color="#643800"/>
</radialGradient>
<linearGradient id="paint7_linear_1209_221854" x1="33.1793" y1="16.8544" x2="33.1793" y2="18.5915" gradientUnits="userSpaceOnUse">
<stop offset="0.00132565" stop-color="#3C2200"/>
<stop offset="1" stop-color="#512D00"/>
</linearGradient>
<radialGradient id="paint8_radial_1209_221854" cx="0" cy="0" r="1" gradientUnits="userSpaceOnUse" gradientTransform="translate(29.0004 27.252) scale(7.05128 7.05127)">
<stop offset="0.00132565" stop-color="#7A4400"/>
<stop offset="1" stop-color="#643800"/>
</radialGradient>
<radialGradient id="paint9_radial_1209_221854" cx="0" cy="0" r="1" gradientUnits="userSpaceOnUse" gradientTransform="translate(29.106 29.7315) scale(5.84397 1.76663)">
<stop offset="0.2479" stop-color="#FF0000"/>
<stop offset="1" stop-color="#C10000"/>
</radialGradient>
<linearGradient id="paint10_linear_1209_221854" x1="37.9847" y1="25.7994" x2="20.125" y2="25.7994" gradientUnits="userSpaceOnUse">
<stop offset="0.00132565" stop-color="#3C2200"/>
<stop offset="0.5" stop-color="#512D00"/>
<stop offset="1" stop-color="#3C2200"/>
</linearGradient>
<radialGradient id="paint11_radial_1209_221854" cx="0" cy="0" r="1" gradientUnits="userSpaceOnUse" gradientTransform="translate(29.0002 25.2817) scale(15.4636 15.4636)">
<stop offset="0.00132565" stop-color="white"/>
<stop offset="1" stop-color="#A8BBBD"/>
</radialGradient>
</defs>
</svg>
