<svg width="21" height="20" viewBox="0 0 21 20" fill="none" xmlns="http://www.w3.org/2000/svg">
<path d="M12.658 2.15573C12.3413 1.83906 11.9163 1.66406 11.4747 1.66406H5.49967C4.58301 1.66406 3.83301 2.41406 3.83301 3.33073V16.6641C3.83301 17.5807 4.57467 18.3307 5.49134 18.3307H15.4997C16.4163 18.3307 17.1663 17.5807 17.1663 16.6641V7.35573C17.1663 6.91406 16.9913 6.48906 16.6747 6.18073L12.658 2.15573ZM12.9997 14.9974H7.99967C7.54134 14.9974 7.16634 14.6224 7.16634 14.1641C7.16634 13.7057 7.54134 13.3307 7.99967 13.3307H12.9997C13.458 13.3307 13.833 13.7057 13.833 14.1641C13.833 14.6224 13.458 14.9974 12.9997 14.9974ZM12.9997 11.6641H7.99967C7.54134 11.6641 7.16634 11.2891 7.16634 10.8307C7.16634 10.3724 7.54134 9.9974 7.99967 9.9974H12.9997C13.458 9.9974 13.833 10.3724 13.833 10.8307C13.833 11.2891 13.458 11.6641 12.9997 11.6641ZM11.333 6.66406V2.91406L15.9163 7.4974H12.1663C11.708 7.4974 11.333 7.1224 11.333 6.66406Z" fill="#0254AC"/>
</svg>
