<svg width="20" height="20" viewBox="0 0 20 20" fill="none" xmlns="http://www.w3.org/2000/svg">
<path d="M12.4997 10.0026C14.3413 10.0026 15.833 8.51094 15.833 6.66927C15.833 4.8276 14.3413 3.33594 12.4997 3.33594C10.658 3.33594 9.16634 4.8276 9.16634 6.66927C9.16634 8.51094 10.658 10.0026 12.4997 10.0026ZM4.99967 8.33594V6.66927C4.99967 6.21094 4.62467 5.83594 4.16634 5.83594C3.70801 5.83594 3.33301 6.21094 3.33301 6.66927V8.33594H1.66634C1.20801 8.33594 0.833008 8.71094 0.833008 9.16927C0.833008 9.6276 1.20801 10.0026 1.66634 10.0026H3.33301V11.6693C3.33301 12.1276 3.70801 12.5026 4.16634 12.5026C4.62467 12.5026 4.99967 12.1276 4.99967 11.6693V10.0026H6.66634C7.12467 10.0026 7.49967 9.6276 7.49967 9.16927C7.49967 8.71094 7.12467 8.33594 6.66634 8.33594H4.99967ZM12.4997 11.6693C10.2747 11.6693 5.83301 12.7859 5.83301 15.0026V15.8359C5.83301 16.2943 6.20801 16.6693 6.66634 16.6693H18.333C18.7913 16.6693 19.1663 16.2943 19.1663 15.8359V15.0026C19.1663 12.7859 14.7247 11.6693 12.4997 11.6693Z" fill="#0254AC"/>
</svg>
