<svg width="20" height="20" viewBox="0 0 20 20" fill="none" xmlns="http://www.w3.org/2000/svg">
<path d="M9.99984 5.83073C9.5415 5.83073 9.1665 6.20573 9.1665 6.66406V9.16406H6.6665C6.20817 9.16406 5.83317 9.53906 5.83317 9.9974C5.83317 10.4557 6.20817 10.8307 6.6665 10.8307H9.1665V13.3307C9.1665 13.7891 9.5415 14.1641 9.99984 14.1641C10.4582 14.1641 10.8332 13.7891 10.8332 13.3307V10.8307H13.3332C13.7915 10.8307 14.1665 10.4557 14.1665 9.9974C14.1665 9.53906 13.7915 9.16406 13.3332 9.16406H10.8332V6.66406C10.8332 6.20573 10.4582 5.83073 9.99984 5.83073ZM9.99984 1.66406C5.39984 1.66406 1.6665 5.3974 1.6665 9.9974C1.6665 14.5974 5.39984 18.3307 9.99984 18.3307C14.5998 18.3307 18.3332 14.5974 18.3332 9.9974C18.3332 5.3974 14.5998 1.66406 9.99984 1.66406ZM9.99984 16.6641C6.32484 16.6641 3.33317 13.6724 3.33317 9.9974C3.33317 6.3224 6.32484 3.33073 9.99984 3.33073C13.6748 3.33073 16.6665 6.3224 16.6665 9.9974C16.6665 13.6724 13.6748 16.6641 9.99984 16.6641Z" fill="#C2C7CC"/>
</svg>
