<svg width="16" height="16" viewBox="0 0 16 16" fill="none" xmlns="http://www.w3.org/2000/svg">
<path d="M12.0002 8.66927H8.66683V12.0026C8.66683 12.3693 8.36683 12.6693 8.00016 12.6693C7.6335 12.6693 7.3335 12.3693 7.3335 12.0026V8.66927H4.00016C3.6335 8.66927 3.3335 8.36927 3.3335 8.0026C3.3335 7.63594 3.6335 7.33594 4.00016 7.33594H7.3335V4.0026C7.3335 3.63594 7.6335 3.33594 8.00016 3.33594C8.36683 3.33594 8.66683 3.63594 8.66683 4.0026V7.33594H12.0002C12.3668 7.33594 12.6668 7.63594 12.6668 8.0026C12.6668 8.36927 12.3668 8.66927 12.0002 8.66927Z" fill="#008670"/>
</svg>
