<svg width="24" height="24" viewBox="0 0 24 24" fill="none" xmlns="http://www.w3.org/2000/svg">
<path d="M15.4996 14.0006H14.7096L14.4296 13.7306C15.6296 12.3306 16.2496 10.4206 15.9096 8.39063C15.4396 5.61063 13.1196 3.39063 10.3196 3.05063C6.08965 2.53063 2.52965 6.09063 3.04965 10.3206C3.38965 13.1206 5.60965 15.4406 8.38965 15.9106C10.4196 16.2506 12.3296 15.6306 13.7296 14.4306L13.9996 14.7106V15.5006L18.2496 19.7506C18.6596 20.1606 19.3296 20.1606 19.7396 19.7506C20.1496 19.3406 20.1496 18.6706 19.7396 18.2606L15.4996 14.0006ZM9.49965 14.0006C7.00965 14.0006 4.99965 11.9906 4.99965 9.50063C4.99965 7.01063 7.00965 5.00063 9.49965 5.00063C11.9896 5.00063 13.9996 7.01063 13.9996 9.50063C13.9996 11.9906 11.9896 14.0006 9.49965 14.0006Z" fill="#626A73"/>
</svg>
